<svg xmlns="http://www.w3.org/2000/svg" viewBox="0 0 16 16" width="32" height="32" shape-rendering="crispEdges">
  <!-- Seguidor Base Frame 2 -->
   <rect x="3" y="13" width="10" height="2" fill="#4169E1" fill-opacity="0.35"/><rect x="4" y="6" width="8" height="6" fill="#FFE48A"/><rect x="5" y="7" width="6" height="4" fill="#FFFACD"/><rect x="6" y="8" width="4" height="2" fill="#FFFFE0"/><rect x="5" y="10" width="6" height="2" fill="#FFD700" fill-opacity="0.6"/>
  <!-- Gravata Borboleta -->
   <rect x="7" y="6" width="3" height="1" fill="#A00000"/> <rect x="6" y="7" width="1" height="1" fill="#FF0000"/>
   <rect x="10" y="7" width="1" height="1" fill="#FF0000"/> <rect x="8" y="7" width="1" height="1" fill="#FF6666"/>
  <!-- Cabeça -->
   <rect x="6" y="3" width="4" height="4" fill="#FFE48A"/><rect x="7" y="4" width="2" height="2" fill="#FFFACD"/>
  <!-- Bico e Olhos -->
   <rect x="9" y="4" width="3" height="2" fill="#FFA500"/><rect x="10" y="5" width="2" height="1" fill="#FF8C00"/>
   <rect x="7" y="5" width="1" height="1" fill="#222222"/><rect x="9" y="5" width="1" height="1" fill="#222222"/>
  <!-- Asas e Linha d'água -->
  <rect x="3" y="7" width="2" height="3" fill="#FFE48A"/><rect x="3" y="8" width="1" height="2" fill="#FFFACD"/><rect x="3" y="9" width="1" height="1" fill="#C6A84F"/><rect x="11" y="7" width="2" height="3" fill="#FFE48A"/><rect x="12" y="8" width="1" height="2" fill="#FFFACD"/><rect x="12" y="9" width="1" height="1" fill="#C6A84F"/>
  <rect x="4" y="12" width="8" height="2" fill="#6495ED"/><rect x="5" y="13" width="3" height="1" fill="#4169E1"/><rect x="9" y="13" width="4" height="1" fill="#4169E1"/><rect x="12" y="12" width="1" height="1" fill="#4169E1"/><rect x="4" y="12" width="3" height="1" fill="#87CEFA"/><rect x="8" y="12" width="2" height="1" fill="#87CEFA"/>
</svg>
