<svg xmlns="http://www.w3.org/2000/svg" viewBox="0 0 24 24" width="48" height="48" shape-rendering="crispEdges">
  <!-- Sombra na Água -->
  <rect x="5" y="17" width="14" height="4" fill="#4169E1" fill-opacity="0.45"/>

  <!-- Corpo Base -->
  <rect x="6" y="8" width="12" height="8" fill="#FFB800"/>
  <!-- Sombra Profunda Corpo -->
  <rect x="7" y="14" width="10" height="2" fill="#D2691E" fill-opacity="0.6"/> <!-- Chocolate -->
  <!-- Sombra Média Corpo -->
  <rect x="7" y="12" width="10" height="2" fill="#FFA500" fill-opacity="0.8"/>
  <!-- Destaque Médio Corpo -->
  <rect x="7" y="9" width="10" height="4" fill="#FFD700"/>
  <!-- Destaque Alto Corpo -->
  <rect x="8" y="10" width="8" height="2" fill="#FFFF00"/>
  <!-- Penas Cauda (Sugestão) -->
  <rect x="5" y="11" width="2" height="3" fill="#FFB800"/>
  <rect x="4" y="12" width="2" height="2" fill="#FFD700"/>
  <rect x="17" y="11" width="2" height="3" fill="#FFB800"/>
  <rect x="18" y="12" width="2" height="2" fill="#FFD700"/>

  <!-- Cabeça Base -->
  <rect x="9" y="4" width="6" height="5" fill="#FFB800"/>
   <!-- Sombra Pescoço -->
  <rect x="9" y="8" width="6" height="1" fill="#D2691E" fill-opacity="0.5"/>
  <!-- Destaque Bochecha -->
  <rect x="9" y="6" width="2" height="2" fill="#FFD700"/>
  <rect x="13" y="6" width="2" height="2" fill="#FFD700"/>
  <!-- Destaque Topo Cabeça -->
  <rect x="10" y="4" width="4" height="2" fill="#FFD700"/>
  <rect x="11" y="4" width="2" height="1" fill="#FFFF00"/>

  <!-- Bico -->
  <rect x="14" y="6" width="4" height="2" fill="#FF8C00"/> <!-- Laranja mais escuro base -->
  <rect x="15" y="6" width="3" height="1" fill="#FFA500"/> <!-- Laranja mais claro topo -->
  <rect x="16" y="7" width="2" height="1" fill="#E07B00"/> <!-- Detalhe/sombra bico -->
  <!-- Linha Boca -->
  <rect x="14" y="7" width="2" height="1" fill="#A0522D" fill-opacity="0.6"/>

  <!-- Olhos -->
  <rect x="10" y="6" width="1" height="2" fill="#111111"/>
  <rect x="12" y="6" width="1" height="2" fill="#111111"/>
  <rect x="10" y="6" width="1" height="1" fill="#FFFFFF" fill-opacity="0.9"/> <!-- Brilho -->
  <rect x="12" y="6" width="1" height="1" fill="#FFFFFF" fill-opacity="0.9"/>

  <!-- Asa (Visível Parcialmente - Frame 1 sutilmente diferente) -->
  <rect x="5" y="10" width="2" height="3" fill="#FFB800"/>
  <rect x="5" y="11" width="1" height="2" fill="#FFD700"/>
  <rect x="17" y="10" width="2" height="4" fill="#FFB800"/> <!-- Asa direita mais visivel -->
  <rect x="18" y="11" width="1" height="3" fill="#FFD700"/>
  <rect x="18" y="13" width="1" height="1" fill="#A07000"/>

  <!-- Efeito Linha D'água -->
  <rect x="6" y="16" width="12" height="2" fill="#6495ED"/>
  <rect x="5" y="16" width="2" height="1" fill="#4169E1"/>
  <rect x="8" y="17" width="3" height="1" fill="#4169E1"/>
  <rect x="13" y="17" width="4" height="1" fill="#4169E1"/>
  <rect x="18" y="16" width="1" height="1" fill="#4169E1"/>
  <rect x="7" y="16" width="2" height="1" fill="#87CEFA"/>
  <rect x="11" y="16" width="3" height="1" fill="#87CEFA"/>
  <rect x="16" y="16" width="2" height="1" fill="#87CEFA"/>
</svg>
