<svg xmlns="http://www.w3.org/2000/svg" viewBox="0 0 24 24" width="48" height="48" shape-rendering="crispEdges">
   <!-- Pato Base (copiado) -->
   <rect x="5" y="17" width="14" height="4" fill="#4169E1" fill-opacity="0.45"/>
   <rect x="6" y="8" width="12" height="8" fill="#FFB800"/><rect x="7" y="14" width="10" height="2" fill="#D2691E" fill-opacity="0.6"/>
   <rect x="7" y="12" width="10" height="2" fill="#FFA500" fill-opacity="0.8"/><rect x="7" y="9" width="10" height="4" fill="#FFD700"/>
   <rect x="8" y="10" width="8" height="2" fill="#FFFF00"/><rect x="5" y="11" width="2" height="3" fill="#FFB800"/>
   <rect x="4" y="12" width="2" height="2" fill="#FFD700"/><rect x="17" y="11" width="2" height="3" fill="#FFB800"/>
   <rect x="18" y="12" width="2" height="2" fill="#FFD700"/>
   <!-- Chapéu de Palha -->
   <rect x="6" y="3" width="12" height="1" fill="#B8860B"/> <rect x="5" y="4" width="14" height="1" fill="#DAA520"/>
   <rect x="8" y="1" width="8" height="3" fill="#F0E68C"/> <rect x="9" y="2" width="6" height="2" fill="#EEE8AA"/>
   <rect x="7" y="3" width="1" height="1" fill="#DAA520"/> <rect x="16" y="3" width="1" height="1" fill="#DAA520"/>
   <!-- Cabeça (Ajustada) -->
   <rect x="9" y="4" width="6" height="5" fill="#FFB800"/> <rect x="9" y="8" width="6" height="1" fill="#D2691E" fill-opacity="0.5"/>
   <rect x="9" y="6" width="2" height="2" fill="#FFD700"/><rect x="13" y="6" width="2" height="2" fill="#FFD700"/>
   <!-- Bico e Olhos -->
   <rect x="14" y="6" width="4" height="2" fill="#FF8C00"/><rect x="15" y="6" width="3" height="1" fill="#FFA500"/>
   <rect x="16" y="7" width="2" height="1" fill="#E07B00"/><rect x="14" y="7" width="2" height="1" fill="#A0522D" fill-opacity="0.6"/>
   <rect x="10" y="6" width="1" height="2" fill="#111111"/><rect x="12" y="6" width="1" height="2" fill="#111111"/>
   <rect x="10" y="6" width="1" height="1" fill="#FFFFFF" fill-opacity="0.9"/><rect x="12" y="6" width="1" height="1" fill="#FFFFFF" fill-opacity="0.9"/>
   <!-- Asas e Linha d'água (Frame 2) -->
   <rect x="5" y="10" width="2" height="4" fill="#FFB800"/><rect x="4" y="11" width="1" height="3" fill="#FFD700"/>
   <rect x="4" y="13" width="1" height="1" fill="#A07000"/><rect x="17" y="10" width="2" height="3" fill="#FFB800"/>
   <rect x="18" y="11" width="1" height="2" fill="#FFD700"/><rect x="6" y="16" width="12" height="2" fill="#6495ED"/>
   <rect x="7" y="17" width="4" height="1" fill="#4169E1"/><rect x="12" y="17" width="3" height="1" fill="#4169E1"/>
   <rect x="17" y="16" width="2" height="1" fill="#4169E1"/><rect x="6" y="16" width="3" height="1" fill="#87CEFA"/>
   <rect x="10" y="16" width="2" height="1" fill="#87CEFA"/><rect x="14" y="16" width="3" height="1" fill="#87CEFA"/>
</svg>
